<svg width="98" height="32" viewBox="0 0 98 32" fill="none" xmlns="http://www.w3.org/2000/svg">
<g id="Ai2_logo_pink_RGB 2">
<path id="Vector" d="M12.0122 12.7073H6.01343V7H10.8417C11.4855 7 12.0122 6.47317 12.0122 5.82927V1H17.7184V7C17.7184 10.161 15.1579 12.7073 12.0122 12.7073ZM6.01343 13.2927H0.0146484V19H4.84294C5.48671 19 6.01343 19.5268 6.01343 20.1707V25H11.7196V19C11.7196 15.839 9.15913 13.2927 6.01343 13.2927ZM25.1949 13C24.5511 13 24.0244 12.4732 24.0244 11.8293V7H18.3182V13C18.3182 16.161 20.8787 18.7073 24.0244 18.7073H30.0232V13H25.1949ZM12.3048 25V31H18.011V26.1707C18.011 25.5268 18.5377 25 19.1815 25H24.0098V19.2927H18.011C14.8507 19.2927 12.3048 21.8537 12.3048 25Z" fill="#F0529C"/>
<path id="Vector_2" d="M68.708 5.05365H63.0164V0.985359H68.708V5.05365ZM64.2747 8.43414H60.851V12.7073H63.8358C64.3333 12.7073 64.7429 13.1171 64.7429 13.6146V31.0146H69.2493V13.2927C69.2493 10.1463 67.2156 8.43414 64.2894 8.43414H64.2747ZM50.5068 0.985359L61.6557 31H56.9152L53.9597 23.0244H40.0162L37.0607 31H32.3641L43.5131 0.985359H50.5068ZM52.5698 19.2927L46.9953 4.27804L41.4208 19.2927H52.5698ZM79.8862 27.2683L89.0453 20.039C94.371 15.839 96.712 12.9122 96.712 8.8878C96.712 4.86341 94.0492 0.180481 86.0166 0.180481C77.9841 0.180481 73.1119 6.70731 73.1119 12.7073H77.9841C77.9841 7.29268 80.3836 4.01463 86.0166 4.01463C91.6497 4.01463 91.8398 6.42926 91.8398 8.9317C91.8398 11.4341 91.1668 12.7219 88.5478 14.8439L73.1997 27.2537V31H97.2534V27.2537H79.8716L79.8862 27.2683Z" fill="#F0529C"/>
</g>
</svg>
