<svg width="49" height="49" viewBox="0 0 49 49" fill="none" xmlns="http://www.w3.org/2000/svg">
    <path fill-rule="evenodd" clip-rule="evenodd" d="M7.22959 36.7257C14.7934 47.3715 30.1422 48.7188 39.4178 39.4425C43.2415 35.618 45.6071 30.3355 45.6071 24.5001C45.6071 22.2983 48.9515 22.2983 48.9515 24.5001C48.9515 43.781 27.6462 55.4276 11.445 45.2168C8.7991 43.5492 6.4943 41.3861 4.66026 38.8587C4.3935 40.1484 4.26545 42.4285 2.30675 42.0295C1.40457 41.8455 0.823056 40.9652 1.00659 40.0635L2.26229 34.0001C2.44633 33.0979 3.3266 32.5158 4.22827 32.6999L10.2917 33.9548C12.4449 34.3974 11.7709 37.6619 9.62533 37.2209L7.22959 36.7257ZM44.6777 8.27004L44.2905 10.1406C42.4561 7.61293 40.1516 5.45023 37.5057 3.7825C21.3061 -6.42672 0 5.21892 0 24.5C0 26.7017 3.34439 26.7017 3.34439 24.5C3.34439 18.6648 5.70944 13.3822 9.5336 9.55751C18.8092 0.281235 34.158 1.62845 41.7218 12.2743L39.3258 11.7785C37.1803 11.3381 36.5062 14.602 38.6594 15.0446L44.7229 16.2995C45.6251 16.4835 46.5054 15.9016 46.6889 14.9993L47.9437 8.93586C48.3855 6.78916 45.1165 6.11829 44.6778 8.27004H44.6777Z" fill="#F0529C"/>
</svg>
