<svg width="92" height="46" viewBox="0 0 92 46" fill="none" xmlns="http://www.w3.org/2000/svg">
<g clip-path="url(#clip0_87_1175)">
<path d="M32.1303 29.0598V4.94591C32.1303 2.76689 30.3599 1 28.1766 1C25.9932 1 24.2228 2.76689 24.2228 4.94591V29.0598C24.2228 37.7759 31.3044 44.8434 40.0379 44.8434H63.7607C65.9441 44.8434 67.7145 43.0765 67.7145 40.8975C67.7145 38.7185 65.9441 36.9516 63.7607 36.9516H40.0379C35.6712 36.9516 32.1303 33.4178 32.1303 29.0598Z" fill="#00D5FF"/>
<path d="M0.5 10.8648V34.9786C0.5 40.4284 4.92386 44.8434 10.3845 44.8434C15.8451 44.8434 20.269 40.4284 20.269 34.9786V10.8648C20.269 5.41503 15.8451 1 10.3845 1C4.92386 1 0.5 5.41503 0.5 10.8648ZM10.3845 36.9516C9.2906 36.9516 8.40759 36.0704 8.40759 34.9786V10.8648C8.40759 9.77307 9.2906 8.89182 10.3845 8.89182C11.4784 8.89182 12.3614 9.77307 12.3614 10.8648V34.9786C12.3614 36.0704 11.4784 36.9516 10.3845 36.9516Z" fill="#265ED4"/>
<path d="M71.731 22.9217V35.1352C71.731 40.585 76.1549 45 81.6155 45C87.0761 45 91.5 40.585 91.5 35.1352V22.9217C91.5 17.472 87.0761 13.0569 81.6155 13.0569C76.1549 13.0569 71.731 17.472 71.731 22.9217ZM81.6155 37.1082C80.5216 37.1082 79.6386 36.2269 79.6386 35.1352V22.9217C79.6386 21.83 80.5216 20.9488 81.6155 20.9488C82.7094 20.9488 83.5924 21.83 83.5924 22.9217V35.1352C83.5924 36.2269 82.7094 37.1082 81.6155 37.1082Z" fill="#265ED4"/>
<path d="M36.0841 10.8648V29.0598C36.0841 31.2388 37.8546 33.0057 40.0379 33.0057C42.2213 33.0057 43.9917 31.2388 43.9917 29.0598V10.8648C43.9917 9.77307 44.8747 8.89182 45.9686 8.89182C47.0625 8.89182 47.9455 9.77307 47.9455 10.8648V29.0598C47.9455 31.2388 49.7159 33.0057 51.8993 33.0057C54.0827 33.0057 55.8531 31.2388 55.8531 29.0598V10.8648C55.8531 9.77307 56.7361 8.89182 57.83 8.89182C58.9239 8.89182 59.8069 9.77307 59.8069 10.8648V29.0598C59.8069 31.2388 61.5773 33.0057 63.7607 33.0057C65.9441 33.0057 67.7145 31.2388 67.7145 29.0598V10.8648C67.7145 5.41503 63.2906 1 57.83 1H45.9686C40.508 1 36.0841 5.41503 36.0841 10.8648Z" fill="#00D5FF"/>
</g>
<defs>
<clipPath id="clip0_87_1175">
<rect width="91" height="46" fill="white" transform="translate(0.5)"/>
</clipPath>
</defs>
</svg>
