<svg fill="none" viewBox="0 0 200 64" xmlns="http://www.w3.org/2000/svg" xmlns:xlink="http://www.w3.org/1999/xlink"><clipPath id="a"><path d="m0 0h200v64h-200z"/></clipPath><g clip-path="url(#a)" fill="#f0529c"><path d="m37.7 12.8v-12.8h-12.15v10.3c0 1.38-1.12 2.5-2.49 2.5h-10.28v12.18h12.78c6.71 0 12.15-5.45 12.15-12.18z"/><path d="m12.78 26.22h-12.78v12.17h10.28c1.37 0 2.49 1.12 2.49 2.5v10.3h12.15v-12.8c0-6.73-5.44-12.17-12.15-12.17z"/><path d="m51.1 23.1v-10.31h-12.15v12.8c0 6.73 5.44 12.17 12.15 12.17h12.78v-12.17h-10.29c-1.37 0-2.49-1.12-2.49-2.5z"/><path d="m26.17 51.2v12.8h12.15v-10.31c0-1.38 1.12-2.5 2.49-2.5h10.29v-12.18h-12.78c-6.71 0-12.15 5.45-12.15 12.18z"/><path d="m99.02 25.29c-.57-.44-1.27-.73-2.1-.86-.19-.04-.39-.06-.6-.07s-.39-.02-.54-.02h-6.09v15.42h1.91v-5.7h4.19c.15 0 .33 0 .54-.02.21-.01.41-.03.6-.06.83-.13 1.53-.42 2.09-.86.57-.45 1-1.01 1.29-1.68s.43-1.42.43-2.23-.14-1.57-.43-2.24-.71-1.23-1.28-1.67zm-.46 5.18c-.14.41-.37.77-.68 1.07s-.71.51-1.2.63c-.16.04-.32.06-.5.07s-.33.02-.47.02h-4.12v-6.1h4.12c.14 0 .29 0 .47.02.18.01.34.04.5.08.49.11.89.31 1.2.62s.54.67.68 1.08.21.83.21 1.26-.07.85-.21 1.26z"/><path d="m104.99 24.03h-1.91v15.74h1.91z"/><path d="m117.09 30.14c-.33-.76-.87-1.32-1.62-1.7s-1.65-.56-2.7-.56c-1.31 0-2.36.29-3.16.87s-1.34 1.37-1.62 2.39l1.81.55c.21-.71.58-1.23 1.11-1.55.52-.32 1.14-.48 1.84-.48 1.06 0 1.8.25 2.23.74.38.44.56 1.12.58 1.98-.41.06-.8.11-1.24.17-.7.09-1.39.19-2.07.31s-1.3.24-1.85.39c-.59.17-1.09.4-1.51.7s-.75.67-.98 1.11c-.23.45-.35.97-.35 1.58s.15 1.19.44 1.71c.3.52.73.94 1.32 1.26.58.32 1.3.48 2.17.48 1.12 0 2.07-.24 2.85-.72.58-.36 1.04-.89 1.43-1.5v1.89h1.69v-7.15c0-.46-.02-.89-.06-1.31s-.15-.8-.31-1.16zm-1.72 5.69c-.09.48-.29.92-.6 1.32s-.71.73-1.21.97c-.5.25-1.1.37-1.78.37-.55 0-.99-.09-1.33-.27s-.59-.41-.75-.7c-.16-.28-.24-.59-.24-.9 0-.36.08-.67.25-.92s.39-.45.66-.6c.27-.16.57-.29.88-.39.43-.12.91-.23 1.45-.32s1.1-.17 1.7-.25c.38-.05.77-.1 1.16-.16 0 .18 0 .39-.01.63-.01.44-.07.84-.18 1.19z"/><path d="m124.06 37.3-3.61-9.1h-2l4.69 11.53-1.91 5.18h1.85l6.3-16.71h-1.94z"/><path d="m138.98 29.52c-.26-.32-.54-.61-.88-.84-.74-.53-1.66-.79-2.75-.79s-1.99.27-2.76.8-1.37 1.26-1.78 2.18c-.42.92-.63 1.96-.63 3.12s.21 2.2.63 3.12 1.01 1.65 1.78 2.19 1.69.81 2.77.81 2-.27 2.74-.81c.25-.18.45-.41.65-.64v1.18c0 .79-.11 1.44-.34 1.97s-.59.93-1.08 1.19c-.48.27-1.1.4-1.83.4-.56 0-1.1-.13-1.62-.39s-.93-.67-1.22-1.23l-1.74.92c.32.57.72 1.04 1.2 1.42s1.01.66 1.59.84 1.17.28 1.78.28c.92 0 1.73-.13 2.43-.39s1.27-.66 1.71-1.19.74-1.21.89-2.03c.06-.29.09-.58.11-.87s.03-.6.03-.91v-11.64h-1.69v1.31zm-1.47 8.26c-.5.38-1.14.56-1.92.56s-1.39-.19-1.89-.58-.88-.91-1.13-1.57-.37-1.4-.37-2.22.12-1.55.37-2.2c.25-.66.62-1.18 1.13-1.56s1.16-.58 1.94-.58 1.38.18 1.87.55.86.88 1.1 1.53.36 1.41.36 2.26-.12 1.59-.36 2.25-.61 1.18-1.11 1.55z"/><path d="m147.38 28.35c-.38.13-.72.31-1.02.56-.27.19-.52.44-.73.74-.1.14-.17.31-.25.47v-1.91h-1.7v11.56h1.92v-5.8c0-.46.04-.91.12-1.34.08-.44.22-.85.42-1.23s.49-.7.86-.96c.41-.3.85-.47 1.33-.52s.92-.02 1.32.09v-1.79c-.34-.08-.71-.11-1.1-.08s-.78.1-1.16.23z"/><path d="m159.39 28.66c-.84-.52-1.83-.78-2.99-.78s-2.11.26-2.94.77c-.84.51-1.48 1.22-1.94 2.14s-.68 1.98-.68 3.19.22 2.25.67 3.17 1.09 1.64 1.92 2.16 1.82.78 2.97.78 2.14-.26 2.98-.78c.83-.52 1.48-1.23 1.93-2.15s.67-1.98.67-3.19-.22-2.25-.67-3.16-1.09-1.64-1.92-2.15zm-.31 8.42c-.59.8-1.48 1.2-2.68 1.2s-2.05-.39-2.64-1.18-.9-1.83-.9-3.13c0-.84.13-1.58.39-2.23.26-.64.65-1.15 1.17-1.51s1.18-.55 1.99-.55c1.18 0 2.07.39 2.67 1.16.59.77.89 1.81.89 3.12s-.29 2.31-.88 3.1z"/><path d="m172.37 34.29c0 .66-.07 1.25-.22 1.74-.15.5-.36.91-.64 1.24-.28.32-.61.57-1.01.73s-.83.25-1.31.25c-.61 0-1.11-.12-1.52-.35-.4-.24-.72-.56-.96-.96-.24-.41-.41-.86-.51-1.37s-.15-1.03-.15-1.57v-5.79h-1.93v6.39c0 .44.04.9.12 1.4s.22.99.42 1.47.47.91.82 1.31.79.71 1.32.94 1.17.35 1.91.35c.99 0 1.85-.22 2.59-.65.51-.3.92-.73 1.27-1.22v1.57h1.7v-11.56h-1.92v6.09z"/><path d="m186.9 30.5c-.2-.48-.47-.92-.83-1.31-.35-.39-.79-.7-1.32-.94s-1.17-.35-1.92-.35c-.99 0-1.85.22-2.59.65-.51.3-.92.73-1.27 1.22v-1.57h-1.71v11.56h1.93v-6.09c0-.67.08-1.25.23-1.75s.37-.91.65-1.24.61-.57 1-.73.82-.24 1.3-.24c.61 0 1.12.12 1.53.35.4.24.72.56.96.96s.41.86.5 1.37c.1.51.14 1.03.14 1.58v5.79h1.93v-6.39c0-.44-.04-.91-.12-1.41s-.22-.99-.42-1.47z"/><path d="m198.08 24.35v4.96c-.21-.22-.41-.46-.66-.64-.74-.53-1.66-.79-2.75-.79s-1.99.27-2.76.8-1.37 1.26-1.78 2.18c-.42.92-.63 1.96-.63 3.12s.21 2.2.63 3.12 1.01 1.65 1.78 2.19 1.69.81 2.77.81 2-.27 2.74-.81c.33-.24.62-.54.88-.85v1.34h1.7v-15.42h-1.92zm-.14 11.88c-.24.66-.61 1.18-1.11 1.55-.5.38-1.14.56-1.92.56s-1.39-.19-1.89-.58-.88-.91-1.13-1.57-.37-1.4-.37-2.22.12-1.55.37-2.2c.25-.66.62-1.18 1.13-1.56s1.16-.58 1.94-.58 1.38.18 1.87.55.86.88 1.1 1.53.36 1.41.36 2.26-.12 1.59-.36 2.25z"/></g></svg>