<svg
  width="24"
  height="24"
  viewBox="0 0 24 24"
  fill="none"
  xmlns="http://www.w3.org/2000/svg"
>
  <path
    d="M7 6C6.45 6 6 6.45 6 7V9C6 10.3 5.16 11.4201 4 11.8301V12.1699C5.16 12.5799 6 13.7 6 15V17C6 17.55 6.45 18 7 18H9C9.55 18 10 18.45 10 19C10 19.55 9.55 20 9 20H7C5.34 20 4 18.66 4 17V15C4 14.4843 3.60435 14.0562 3.10156 14.0049L2.89844 13.9951C2.39565 13.9438 2 13.5157 2 13V11C2 10.4843 2.39565 10.0562 2.89844 10.0049L3.10156 9.99512C3.60435 9.94382 4 9.51574 4 9V7C4 5.9128 4.57643 4.96558 5.43945 4.43945L7 6ZM19.5596 18.5596C19.0335 19.4227 18.0873 20 17 20H15C14.45 20 14 19.55 14 19C14 18.45 14.45 18 15 18H17C17.55 18 18 17.55 18 17L19.5596 18.5596ZM17 4C18.66 4 20 5.34 20 7V9C20 9.51574 20.3957 9.94382 20.8984 9.99512L21.1016 10.0049C21.6043 10.0562 22 10.4843 22 11V13C22 13.5157 21.6043 13.9438 21.1016 13.9951L20.8984 14.0049C20.3957 14.0562 20 14.4843 20 15V16.1719L18.0908 14.2627C18.338 13.285 19.0654 12.5003 20 12.1699V11.8301C18.84 11.4201 18 10.3 18 9V7C18 6.45 17.55 6 17 6H15C14.45 6 14 5.55 14 5C14 4.45 14.45 4 15 4H17ZM9 4C9.55 4 10 4.45 10 5C10 5.3186 9.84823 5.60268 9.61426 5.78613L7.82812 4H9Z"
    fill="currentColor"
  />
  <line
    x1="3.41421"
    y1="3"
    x2="20.3848"
    y2="19.9706"
    stroke="currentColor"
    stroke-width="2"
    stroke-linecap="round"
  />
</svg>
