<svg width="14" height="14" viewBox="0 0 14 14" fill="none" xmlns="http://www.w3.org/2000/svg">
<g clipath="url(#clip0_858_11794)">
<path d="M1.39721 6.0679V10.2707H0.698603C0.312974 10.2707 0 9.95772 0 9.57209V6.77209C0 6.38646 0.312974 6.07349 0.698603 6.07349H1.39721V6.0679ZM11.8986 10.9693C11.8986 11.7406 11.2727 12.3665 10.4958 12.3721H3.49301C2.72176 12.3721 2.09581 11.7461 2.09022 10.9693V5.0172C2.09022 4.05034 2.87265 3.2679 3.83952 3.2679H6.28743V1.86511C6.28743 1.47948 6.6004 1.1665 6.98603 1.1665C7.37166 1.1665 7.68463 1.47948 7.68463 1.86511V3.2679H10.1325C11.0994 3.2679 11.8818 4.05034 11.8818 5.0172V10.9693H11.8986ZM4.89581 5.89465C4.41517 5.89465 4.01836 6.28586 4.01836 6.77209C4.01836 7.25832 4.40958 7.64954 4.89581 7.64954C5.38204 7.64954 5.77325 7.25832 5.77325 6.77209C5.77325 6.28586 5.38204 5.89465 4.89581 5.89465ZM4.19721 9.57209V10.2707H5.6V9.57209H4.19721ZM6.2986 9.57209V10.2707H7.7014V9.57209H6.2986ZM9.0986 5.89465C8.61796 5.89465 8.22116 6.28586 8.22116 6.77209C8.22116 7.25832 8.61238 7.64954 9.0986 7.64954C9.58483 7.64954 9.97605 7.25832 9.97605 6.77209C9.97605 6.28586 9.58483 5.89465 9.0986 5.89465ZM8.4 9.57209V10.2707H9.80279V9.57209H8.4ZM14 9.57209C14 9.95772 13.687 10.2707 13.3014 10.2707H12.6028V6.0679H13.3014C13.687 6.0679 14 6.38087 14 6.7665V9.5665V9.57209Z" fill="#00B0D2"/>
</g>
<defs>
<clipPath id="clip0_858_11794">
<rect width="14" height="14" fill="white"/>
</clipPath>
</defs>
</svg>
