<svg xmlns="http://www.w3.org/2000/svg" width="21" height="16" viewBox="0 0 21 16" fill="none">
    <path d="M1.5 12.3838C2.32843 12.3838 3 13.0554 3 13.8838C3 14.7122 2.32843 15.3838 1.5 15.3838C0.671573 15.3838 0 14.7122 0 13.8838C0 13.0554 0.671573 12.3838 1.5 12.3838Z" fill="currentColor"/>
    <path fill-rule="evenodd" clip-rule="evenodd" d="M13.7021 0.00976562C16.4864 0.150909 18.8685 1.81141 20.04 4.17773C20.6159 5.2192 20.9501 6.41007 20.9502 7.5C20.9502 8.79034 20.5192 10.0667 19.7031 11.3057C18.4353 13.2858 16.2629 14.6314 13.7686 14.7578L13.3828 14.7676H11.3828C9.48759 14.7675 7.7578 14.0628 6.4375 12.9033C6.08975 13.1277 5.6703 13.249 5.21777 13.249C4.02121 13.2489 3.0501 12.2944 3.0498 11.1143C3.0498 10.3156 3.49336 9.62124 4.15039 9.25488C3.97684 8.62184 3.81641 8.18814 3.81641 7.5C3.81654 3.35798 7.17435 3.22122e-08 11.3164 0H13.3164L13.7021 0.00976562ZM8.50098 6.03711C7.70414 6.03721 7.05699 6.67509 7.05664 7.46094C7.05664 8.24708 7.70393 8.88564 8.50098 8.88574C9.298 8.88561 9.94531 8.24706 9.94531 7.46094C9.94497 6.67511 9.29779 6.03724 8.50098 6.03711ZM12.5449 6.03711C11.748 6.03711 11.1009 6.67502 11.1006 7.46094C11.1006 8.24714 11.7478 8.88574 12.5449 8.88574C13.3418 8.88544 13.9883 8.24695 13.9883 7.46094C13.9879 6.67521 13.3416 6.03741 12.5449 6.03711ZM16.5879 6.03711C15.791 6.03719 15.1439 6.67507 15.1436 7.46094C15.1436 8.24709 15.7908 8.88566 16.5879 8.88574C17.3849 8.88561 18.0322 8.24706 18.0322 7.46094C18.0319 6.67511 17.3847 6.03724 16.5879 6.03711Z" fill="currentColor"/>
</svg>