<svg width="14" height="14" viewBox="0 0 14 14" fill="none" xmlns="http://www.w3.org/2000/svg">
<path d="M13.125 10.8837V11.961C13.125 12.6426 12.5417 13.1923 11.8183 13.1923H2.18167C1.45833 13.1923 0.875 12.6426 0.875 11.961V10.8837C0.875 8.97077 2.52 7.42067 4.55 7.42067H5.005C5.61167 7.68452 6.28833 7.83843 7 7.83843C7.71167 7.83843 8.38833 7.68452 8.995 7.42067H9.45C11.48 7.42067 13.125 8.97077 13.125 10.8837ZM3.5 3.29808C3.5 1.47314 5.06333 0 7 0C8.93667 0 10.5 1.47314 10.5 3.29808C10.5 5.12301 8.93667 6.59615 7 6.59615C5.06333 6.59615 3.5 5.12301 3.5 3.29808Z" fill="#E3B100"/>
</svg>